<?xml version="1.0" encoding="UTF-8" standalone="no"?>
<!-- Created with Inkscape (http://www.inkscape.org/) -->

<svg
   xmlns:dc="http://purl.org/dc/elements/1.1/"
   xmlns:cc="http://creativecommons.org/ns#"
   xmlns:rdf="http://www.w3.org/1999/02/22-rdf-syntax-ns#"
   xmlns:svg="http://www.w3.org/2000/svg"
   xmlns="http://www.w3.org/2000/svg"
   xmlns:sodipodi="http://sodipodi.sourceforge.net/DTD/sodipodi-0.dtd"
   xmlns:inkscape="http://www.inkscape.org/namespaces/inkscape"
   width="256px"
   height="256px"
   viewBox="0 0 256 256"
   version="1.1"
   id="SVGRoot"
   inkscape:version="0.92.4 (5da689c313, 2019-01-14)"
   sodipodi:docname="Blob.svg">
  <defs
     id="defs4520" />
  <sodipodi:namedview
     id="base"
     pagecolor="#000000"
     bordercolor="#999999"
     borderopacity="1.0"
     inkscape:pageopacity="1.0"
     inkscape:pageshadow="0"
     inkscape:zoom="2.8284271"
     inkscape:cx="167.37459"
     inkscape:cy="77.267922"
     inkscape:document-units="px"
     inkscape:current-layer="layer1"
     showgrid="false"
     inkscape:window-width="2560"
     inkscape:window-height="1377"
     inkscape:window-x="-8"
     inkscape:window-y="-8"
     inkscape:window-maximized="1" />
  <metadata
     id="metadata4523">
    <rdf:RDF>
      <cc:Work
         rdf:about="">
        <dc:format>image/svg+xml</dc:format>
        <dc:type
           rdf:resource="http://purl.org/dc/dcmitype/StillImage" />
        <dc:title></dc:title>
      </cc:Work>
    </rdf:RDF>
  </metadata>
  <g
     inkscape:label="Layer 1"
     inkscape:groupmode="layer"
     id="layer1">
    <rect
       style="fill:#000000;fill-opacity:1;stroke:#000000;stroke-width:100;stroke-miterlimit:4;stroke-dasharray:none;stroke-opacity:1"
       id="rect5076"
       width="89.095451"
       height="89.095451"
       x="61.871845"
       y="69.677361" />
    <path
       style="fill:#ffffff;stroke:none;stroke-width:1px;stroke-linecap:butt;stroke-linejoin:miter;stroke-opacity:1;fill-opacity:1"
       d="m 53,40.5 c 20.145441,-12.535562 30.546763,-6.685384 53.25,-24.75 19.5,-2.25 18.5,14.5 41.5,18.75 23,4.25 47.99044,-13.603421 66,15 8.5,13.5 -2.25,29.5 8.75,53.25 11,23.75 18.25,61.5 12.25,76.5 -6,15 -37.25,4.5 -56.5,24 -19.25,19.5 -26.5,42 -46.5,41.75 -20,-0.25 -14,-24 -34.25,-34 -20.25,-10 -46.5,-5.25 -57,-10.25 -10.5,-5 -2.25,-24.5 -1.25,-42 1,-17.5 -25.25,-32.5 -25,-43.75 C 14.5,103.75 38.13804,97.746102 47.5,87 55.621845,77.677361 43.07986,45.88457 53,40.5 Z"
       id="path5084"
       inkscape:connector-curvature="0"
       sodipodi:nodetypes="ccsssssssssssc" />
  </g>
</svg>
